<svg version="1.1" id="Capa_1" xmlns="http://www.w3.org/2000/svg" x="0" y="0" viewBox="0 0 417.6 500" xml:space="preserve"><style>.st0{opacity:.4;fill:#d6d8e5;enable-background:new}.st1{fill:#3a2c6d}.st2{fill:#ffcea9}.st3{fill:#f4f4f4}.st4{fill:#38226d}.st5{fill:#9c73ff}.st6{fill:#ededed}.st7{fill:#434b5b}.st8{fill:#c1c4d3}.st9{fill:#a7abb7}.st10{fill:#916f5d}.st11{fill:#d5d7e2}.st12{fill:#3a4151}.st13{fill:#2b303f}.st14{fill:#53f}.st15{fill:#dd7a7a}.st17{fill:#653ab8}.st18{fill:#7945dc}.st19{fill:#4b2b89}.st20{fill:#212531}.st21{fill:#1f232d}.st22{fill:#171a22}.st23{fill:#727379}.st24{fill:#1f232b}.st26{fill:#f4f6f9}</style><g id="Слой_2"><g id="Слой_1-2"><ellipse transform="rotate(-22.78 313.0041298 478.77949929)" class="st0" cx="313" cy="478.8" rx="32.2" ry="18.6"/><ellipse transform="rotate(-22.78 385.82073927 256.90397124)" class="st0" cx="385.8" cy="256.9" rx="33.5" ry="19.5"/><ellipse transform="matrix(.3553 -.9348 .9348 .3553 -33.5968 460.2863)" class="st0" cx="316.9" cy="254.5" rx="19.5" ry="33.5"/><ellipse transform="matrix(.3553 -.9348 .9348 .3553 39.9815 479.2227)" class="st0" cx="367.4" cy="210.6" rx="19.5" ry="33.5"/><ellipse transform="rotate(-22.78 271.3347178 450.9922727)" class="st0" cx="271.3" cy="451" rx="32.2" ry="18.6"/><ellipse transform="rotate(-75.422 150.33930757 451.69332905)" class="st0" cx="150.4" cy="451.7" rx="18.6" ry="42.8"/><ellipse transform="rotate(-75.422 193.6205303 226.13891591)" class="st0" cx="193.6" cy="226.1" rx="18.6" ry="48.7"/><ellipse transform="rotate(-22.78 70.712877 313.9163337)" class="st0" cx="70.7" cy="313.9" rx="32.2" ry="18.6"/><ellipse transform="rotate(-22.78 27.73501588 289.45643398)" class="st0" cx="27.7" cy="289.5" rx="28.1" ry="16.2"/><path class="st1" d="M27.6 91.9c-1.5-2.4-12.8-3.9-16.5 5.6-1.4 3.6-1.2 12.9-2.4 18.7s-4 9.1-5 13.9c-1 4.7.6 12.6 12 14s20.1-2.6 22.8-6.2 2.7-11.3 0-15.5-4.9-7.5-4.8-12.9l-6.1-17.6z"/><path class="st2" d="M41.1 131.9s2.7 18.9-2.4 32.3-3.7-3.4-3.7-3.4l1.2-4s1-15.4.6-19.2-.3-7-.6-7.3 1-.9 1.5-1 3.4 2.6 3.4 2.6z"/><path class="st1" d="M20.1 90.2s8.5-2.4 13.6 2.2c3.5 3.2 4.9 8.1 3.6 12.6-.7 2.7-2.1 6.3-4.2 6.6s-13-21.4-13-21.4z"/><path class="st2" d="M16.9 113.4s.6 9.5.4 10.2-3.7 1.4-4.7 2.2 5.2 10.4 8.3 11.9 12.8-2.2 13.5-7c.6-4.4-2.8-7.9-4.1-9.1-.9-.1-1.8-.1-2.7-.1l-.3-4.6c-4.3-1.4-10.4-3.5-10.4-3.5z"/><path class="st3" d="M36.9 145.4c0 2-.2 5.1-.4 7.3-.1 1.2-.2 2.2-.2 2.6v.2c-9.3 5.8-20.8.8-20.8.8-.4-.8-.8-1.6-1.2-2.6-1.1-2.4-2.3-5.7-4-10-2.3-6.2-1.2-14.2-.8-15.9.4-1.5 3.5-2.9 6.1-3.3 3.1 1.7 5 6.1 14.6 9 4.5-4.4-2-12-2-12 .9-.1 1.7-.1 2.6 0 7.3 7.2 14.6 16.4 6.1 23.9z"/><path class="st2" d="M34.6 101.7c-1-6.1-5.4-10.7-11.6-10.3-6.7.4-11.8 6.1-11.4 12.8.2 3.7 2.2 7.2 5.3 9.3.2.9.6 1.8 1 2.7 2.2 2.6 8.1 4.2 10.1 4.3 1.7 0 3.1-1.6 4.7-4.2 3.2-5.6 2.4-11.6 1.9-14.6z"/><path class="st1" d="M21 91.5c-4.4.9-8 2.1-9.2 6.4-.8 3-1.9 8.7-.9 11l.6 1.7 5.3 2.8s2.5-2.1 1.7-8.2c0-.8.3-1.6.8-2.3.3-.6.6-1.2.7-1.8.6-1.6 1.9-3 3.5-3.7 4-2.2 9.8-.3 10.6.5-2.3-5-7.8-7.7-13.1-6.4z"/><path class="st2" d="M9.1 168.8c-1-6.2-2.8-10.2-2-13.6 1.9-6.9 4.4-13.6 7.5-20 1.9-3.8 1.4-6.5-.7-8-2.3-1.7-4.4-1-6.5 3.3-2.6 5.3-5.5 10.8-6.9 18.8-.7 3.9-1 7.6.2 15.5.9 5.6 2.6 8.7 4.7 13.9.7 1.4 4.6-4.7 3.7-9.9z"/><path class="st4" d="M13 283.8c2.2 1.8 5.7.6 5.9.7 2.3 2.3 5.6 4.2 8.2 6.2 1.4 1.1 3.5 2.6 3.2 4.7-.7 3.8-6.7 2.6-9 1.5s-4.1-3-6.3-4.4c-1.5-1-3-1.4-3.3-3.4-.2-1.1.9-5.3 1.3-5.3z"/><path class="st5" d="M11.7 288.4c.3 1.9 1.8 2.4 3.3 3.3 2.2 1.4 4.1 3.3 6.4 4.5 2.1 1.1 7.3 2.1 8.8-.6-.8 3.6-6.7 2.5-9 1.4s-4.1-3-6.3-4.4c-1.5-1-3-1.4-3.3-3.4 0-.3 0-.6.1-.8z"/><path class="st4" d="M28.6 280.7c2 1.7 5.1.7 5.3.9 2.1 2.1 5.2 3.9 7.5 5.7 1.3 1 3.3 2.3 2.9 4.3-.6 3.4-6.2 2.4-8.2 1.3s-3.8-2.8-5.7-4c-1.4-.9-2.8-1.3-3-3.1-.2-1.1.9-5.1 1.2-5.1z"/><path class="st5" d="M27.3 285c.3 1.7 1.6 2.2 3 3 2 1.2 3.8 3 5.8 4.1 1.9 1 6.7 1.9 8-.5-.7 3.3-6.1 2.3-8.2 1.2s-3.8-2.8-5.7-4c-1.4-.9-2.8-1.3-3-3.1 0-.2.1-.5.1-.7z"/><path class="st2" d="M40.6 177c-1-7.7-3.8-18.8-3.8-18.8-2.7 1.3-5.6 2-8.5 2.1-5 .2-12.9-1.3-12.9-1.3-1.4 2.4-2.9 4.8-4.5 7-2.2 3.1-6.5 9.8-5.5 21.6.7 7.7 5 40.4 5 40.4-1.7 5.5-2.6 11.3-2.7 17 0 4.8 1.3 12.8 2.7 20.3l2.6 18.5s3.4 2.5 5.9.7l-.3-18.1c.3-4.4.7-11 1-15.2.5-6.8 1.7-17.6 2-20.3s1.2-7.4 1.6-12.7 2.4-32.2 2.4-32.2l.3 5s.3 8.2 1.4 18.3 1.6 14.6 1.6 14.6c-1.1 2-1.9 4.2-2.3 6.5-.2 2.2-2.7 19.4-1.2 28.2l3.1 22.3c1.5 1.1 3.5 1.3 5.3.7l1.8-22.5c1.2-8.6 3.8-26.7 4.2-29 .5-3.1.9-4.6 1.5-14.4s.3-31-.7-38.7z"/><path class="st6" d="M3.5 138s4.6 4.6 10 4l2.6-8.9s1.7-4.7-2.3-6.7-8 2.4-10.3 11.6zM30.9 121.5s5.3-1.6 10.8 10.1l-2.1 1.3c0-.1-5.5-8.4-8.7-11.4z"/><path class="st2" d="M99.6 161.2c.4 3.5 4.5 18.4 3.6 23.6s-15 13.7-15 13.7l-2-8.8L94 182l-2-14.5 7.6-6.3z"/><path class="st7" d="M101 166.2c-.3.4-.6.7-.9 1v.1c-1 1-2.2 1.7-3.5 2.1-.9.3-1.9.3-2.8.2l-.6-2.9-4.4-20.2c2.8-1.3 6.2-.3 7.9 2.4 1.2 1.9 2.3 6.4 3.2 10.4.5 3.1 1 6 1.1 6.9z"/><path class="st8" d="M72.6 313.3c-3.1.8-6.4.4-9.2-1.1-2.2.1-14.2-5-15.8-.8-1.4 3.8 3.8 7.2 6.5 7.9 6 1.5 10.5 4.5 12.9 5 1.8.4 4.2.6 5.6-.8 1.8-1.6 1.6-7.9 0-10.2z"/><path class="st9" d="M67.1 323.3c-2.4-.5-6.9-3.5-12.9-5-2.3-.6-6.3-3.1-6.7-6.1-.5 3.5 4.1 6.5 6.7 7.2 6 1.5 10.5 4.5 12.9 5 1.8.4 4.2.6 5.6-.8.4-.4.7-.9.8-1.5-1.9 1.4-4.2 1.9-6.4 1.2z"/><path class="st8" d="M92 304.6c-3.1.8-6.4.4-9.2-1.1-2.2.1-14.2-5-15.8-.8-1.4 3.8 3.8 7.3 6.5 7.9 6 1.5 10.5 4.5 12.9 5 1.8.4 4.2.6 5.6-.8 1.8-1.6 1.7-7.9 0-10.2z"/><path class="st9" d="M86.5 314.6c-2.4-.5-6.9-3.5-12.9-5-2.3-.6-6.3-3.1-6.7-6.1-.5 3.5 4.2 6.5 6.7 7.2 6 1.5 10.5 4.5 12.9 5 1.8.4 4.2.6 5.6-.8.4-.4.7-.9.8-1.5-1.9 1.4-4.2 1.8-6.4 1.2z"/><path class="st10" d="M92.2 272.1c-.5-4.4-1.4-8.8-2.8-13.1 0 0 .8-11.3 1.2-22 .5-12.2 4.7-22.9 1.4-32.6l-37.5 8.3s2.3 48.5 2.8 54.4c.3 4.6.9 9.1 1.7 13.6 1.7 9.4 4.5 31.8 4.5 31.8 4 2.3 9.2 1 9.2 1s-.3-28.3-.5-35.1c-.3-8.3-.6-7.6-.6-7.6l1.2-20.6.8-10.3s1 7.5 1.7 14.3c.6 5.9 2 11.2 3.6 22.1 1.4 9.5 3.6 28.5 3.6 28.5 4 2.3 9.4.4 9.4.4s1.4-24.9.3-33.1z"/><path class="st2" d="M86.7 146.7c-2.9.1-5 .9-5.3 0-.3-1.5-.5-3-.7-4.5.3-.8.6-1.7.6-1.7 3.6-2.2 4.7-6.1 5.2-10.6.8-7.7-3.4-14.5-11.1-15.3-7.3-.8-12.6 4.3-14 11.3-.8 3.5-2.3 10-.2 15.7 1.2 3.2 2.6 5.7 4.1 6.2 1.4 0 2.9-.2 4.3-.4 0 0 .4 2.1.7 3.5s.2 2.1-2.6 3.8 4.1 5.2 8.6 4.8 9.6-3.1 11-6c1.5-3.1 1.4-6.9-.6-6.8z"/><path class="st11" d="M101 166.2c-.3.4-.6.7-.9 1v.1c-1 .9-2.2 1.6-3.5 2.1-.8.3-1.6.5-2.4.6l-2.6-2.3c.6-.3 1.1-.6 1.6-.9 1.8-1.2 3.3-2.6 4.6-4.3.8-1 1.5-2 2.1-3.1.5 3 1 5.9 1.1 6.8z"/><path class="st7" d="M92.5 186c-1.8 6.4-.5 8.2-.4 19.4-3.2 5.3-16.1 12.1-23.8 12.7s-13.7-5.4-13.7-5.4c-.4-3.3-.4-22.1.1-34.9.4-11 1.9-17.5 5.1-19.8 1.8-1.1 3.6-2.1 5.5-3 2.4-1.2 4.6-2.2 4.9-2.3v.1c.1.3 1 1.9 5.8.4 5.3-1.7 7.3-4.1 6.6-6v-.1c.2 0 2.2-.3 4.4-.5.9-.1 1.8-.1 2.6-.2 3.2-.1 5.5.9 7.2 9 2 9.8-.2 15.9-4.3 30.6z"/><path class="st2" d="M42.5 188.4c6.3 1.6 7.8-2.4 8.6-5.7 2-8 3.1-15.2 4.6-19.8 1.8-5.4 3.6-6.2 6.2-7.2 3.1-1.2 5.7 1.4 4.7 8.2-1.2 8.1-2.8 13.7-5.8 23.2-.8 2.5-2.5 6.9-5.2 9-3.3 2.6-8.2 2.5-15.6.7-3.2-.8-6.7-2.7-12.6-5.5-1.6-.8-2.9-1.2-5.9-2.7-3.1-1.4-5.8-3.5-7.9-6.2-1.6-2.4-1.8-3.4-1.5-4s1.1-.5 2 .5c1.2 1.7 2.8 3.1 4.5 4.2 0 0-2-2.1-3.1-3.4-1-1.2-1.8-2.5-2.4-3.9-.6-1.4.6-3.2 1.5-2.2s1.3 2 3 3.9c.9 1 1.8 2 2.9 2.8-1-1.4-1.9-2.8-2.7-4.3-.7-1.2-1.1-2.5-1-3.9 0-.7 1-1.6 2-.2.9 1.2 1.4 3.1 3.4 5.2 1.5 1.5 2.7 2.4 2.7 1.9s-.9-1.2-1.4-3 0-3.6 1-3.8.8-.1 1.5 1.5 2 2.8 2.9 5.2c.5 1.7 1.4 3.2 2.6 4.5 1.6 1.7 5 3.5 11 5z"/><path class="st12" d="M61.7 125s-6.7-10.2 7.8-12.2c10.4-1.5 17.1 5.2 17.9 12.5.7 6.9-3.5 14.1-6.6 17-1.5.5-4.8.9-9-1.1-.2-1.9-.2-3.8-.2-5.7-.1 0 5-10.7-9.9-10.5z"/><path class="st13" d="M388.7 205.9c-2.7 2.2-6.7.2-6.9.4-3.2 2.9-6.5 5.7-9.9 8.3-1.7 1.3-4.3 3.1-3.8 5.6.9 4.5 8.1 3.1 10.9 1.8s5-3.7 7.6-5.3c1.9-1.1 3.7-1.8 4-4.1 0-1.4-1.4-6.7-1.9-6.7z"/><path class="st12" d="M390.4 211.6c-.4 2.2-2.1 2.9-4 4-2.6 1.6-5 4-7.7 5.4-2.5 1.3-8.8 2.6-10.6-.7 1 4.4 8.1 3 10.8 1.6s5-3.7 7.6-5.3c1.9-1.1 3.7-1.8 4-4.1 0-.2 0-.5-.1-.9z"/><path class="st13" d="M365.4 197.2c-2.7 2.2-7.4-.2-7.6 0-2.8 2.8-5.8 5.5-8.9 8-1.7 1.3-4.3 3.1-3.8 5.6.8 4.5 8.1 3.1 10.9 1.8s5-3.7 7.6-5.3c1.9-1.1 3.7-1.7 4-4.1 0-1.4-1.8-6-2.2-6z"/><path class="st12" d="M367.3 202.6c-.4 2.2-2.1 2.9-4 4-2.6 1.6-5 4-7.7 5.4-2.5 1.3-8.8 2.6-10.6-.7 1 4.4 8.1 3 10.8 1.6s5-3.7 7.6-5.3c1.9-1.1 3.7-1.7 4-4.1 0-.2 0-.6-.1-.9z"/><path class="st2" d="M347.4 48.5s.1 4.4-.5 15.2c-.2 8.1.2 16.2 1.1 24.3.8 6.4 2.5 12.6 5.2 18.5 1.9-9.3-.3-10.9-.3-10.9l1.1-19.7s-1.1-19.1-.7-25.8c.3-4.3-5.9-1.6-5.9-1.6z"/><path class="st14" d="M388.8 106.5c-.1 4.1-1.4 21.8-2 31.1s-.7 20.8-.7 20.8 1.6 6.8 2.7 14.8 0 33.3 0 33.3c-2.1 1.3-4.8 1.3-6.9 0 0 0-4.3-20.2-6.3-29.4s-2.3-14.4-3.4-20c-1.2-6.8-4-38.8-4-38.8l-1.1.1-2.9 36c.9 2.7 1.5 5.4 1.8 8.2.8 5.9-.8 35.4-.8 35.4-2.3 1.3-5.2 1.2-7.5-.3 0 0-7.2-39.1-7.2-45.1 0-3.9.7-55.8.7-55.8l37.6 9.7z"/><path class="st2" d="M374.3 51.5c-1.5.7-4.4.3-7.2-.8-2.1-.7-4-1.9-5.6-3.3-1.2-1-2-2.5-2.2-4.1-.2-4.4 1.2-8.2 2.6-9.7.3-.3.6-.6 1-.7l.7-.2.4-.1c.1 0 .3-.1.5-.1 4.2-1.2 14.4-4.8 14.4-4.8s-.5 8.9-.3 9.7c0 .1.1.2.2.3.6.6 1.3 1.2 2 1.7.2.2.4.3.7.5 1 .7 1.9 1.4 2.4 1.8 1.2 1-6 8.2-9.6 9.8z"/><path class="st15" d="M390.7 50.6c0 .5 0 1-.1 1.5-.3 5-1.4 9.6-2.3 15-.2 1-.4 2-.5 3s-.3 2.1-.5 3.1c-.2 1.7-.3 3.4-.2 5.1 0 4 .5 8.7 1 13.1.2 1.4.3 2.8.5 4.1.1.6.1 1.2.2 1.8.4 3.3.7 6.2.8 8.1-.2.5-.5.9-.8 1.3-1.3 1.6-3 2.8-5 3.5-.5.2-1 .4-1.5.5-.8.3-1.7.5-2.6.7-2 .5-4.1.7-6.2.6-.9 0-1.8-.1-2.6-.3l-1.5-.3c-.5-.1-1.3-.3-2-.5-2.6-.8-5-1.9-7.4-3.2-2.4-1.3-4.5-3-6.2-5-1-1.1-1.8-2.4-2.5-3.8-.3-.6-.5-1.2-.7-1.8 0 0 .2-28.8 0-38.2 0-2.3 0-4.4.1-6.3v-.4c.1-1.6.2-3.1.4-4.5.3-3.1 1-6.1 2-9.1 1.1-3.1 3.4-5.7 6.3-7.3.3-.1.6-.1.9 0 1.4.2 2.7.7 3.8 1.5.1 0 .1.1.2.1.7.4 1.1.8 1.2.8-.5.4-.9.9-1.2 1.4-2.6 4-2.1 12.1.4 14.5C373.6 48.6 380 39 380 39s.3.1.9.5l.7.4c1 .6 2.6 1.6 4.8 3.2.2.1.3.2.5.3 2.3 1.6 3.5 2.1 3.8 5.1v2.1z"/><path class="st2" d="M383.6 110.4c1.3-1.5 3.6-9.8 5-15 1.3-5.9 1.5-12 .8-18-1.2-7.2-4.5-17.1-5.4-21.2s.3-5.8 2.1-7.5c2.1-1.9 5.3-1.4 7.4 4.3 2.7 7.9 4.5 16.1 5.4 24.3.5 6.2-.1 12.4-1.6 18.4-1.4 5.6-3.4 9.6-6 14.8-.7 1.4-2.3 5.3-3.3 8.1s-5.6-6.9-4.4-8.2z"/><path class="st11" d="M381.6 39.9c-1.6 2.2-7.2 8.9-14.4 10.8-.8.2-1.6.4-2.4.4l-.8.1-.6-.6c-.9-.9-1.5-2.1-1.9-3.3-.6-2-.9-4.2-.8-6.3 0-2.4.7-4.8 1.9-6.9.3-.5.7-1 1.1-1.4l.2-.2c.1-.1.2-.2.4-.3l.3.3.8 1 1.1 1.3c-.1.1-.3.2-.4.4-1.1 1.2-1.8 3.4-1.9 6-.2 2.2.2 4.4 1.1 6.4 6.8-1.2 12.4-8.2 13.6-9.9.6.6 1.3 1.2 2 1.7l.7.5z"/><path class="st2" d="M359 14.6c1-6.9 6-12.1 13.1-11.7 7.5.3 13.4 6.7 13.1 14.2-.2 4.3-2.4 8.3-6.1 10.8-.2 1-.6 2-1.1 3-2.5 2.9-10.1 4.8-12.3 4.5-2.8-.4-4.3-1.6-5.6-4.6-2.5-5.6-1.7-12.8-1.1-16.2z"/><path class="st12" d="M379 27.8l-.6-6s4.9-12.7-6.7-10.3c-7.7 1.6-9.6 2.3-11.9-2.8s5.9-9.8 15.6-8.5c7 .7 12.2 6.7 12.1 13.7-.3 3.8-1.3 11.4-8.5 13.9z"/><path class="st15" d="M398.9 62.3s-6.3 6.3-13.8 4.5c-1.1-.7-3.6-15.5-3.6-15.5s0-8.2 6.2-7.9 11.2 18.9 11.2 18.9zM359.4 31.2c-2.1 1.9-3.9 4-5.3 6.4-2 3.4-2.8 9.8-3.1 13.5-.1 1.7-.2 2.9-.2 2.9s-4.2.5-5.6-1.4c.1-1 .3-2 .6-3 1.7-5.9 6.6-17.6 13.6-18.4z"/><path class="st2" d="M288.7 99.8c-.4 3.6-4.6 18.9-3.7 24.1.9 5.3 15.4 14 15.4 14l2-9-8-7.9 2.2-14.9-7.9-6.3z"/><path class="st6" d="M299.9 84.7c-2.9-1.3-6.4-.3-8.1 2.4-2.1 3.5-4.4 15.6-4.5 17.7 0 0 3 4.1 7.5 3.4l5.1-23.5z"/><path class="st13" d="M316.4 255.6c3.2.9 6.5.5 9.4-1.1 2.3.1 14.5-5.2 16.2-.8 1.5 3.9-3.9 7.4-6.7 8.1-6.2 1.5-10.8 4.6-13.2 5.1-1.9.4-4.2.6-5.7-.8-1.9-1.7-1.7-8.2 0-10.5z"/><path class="st12" d="M322 265.9c2.5-.5 7.1-3.6 13.2-5.1 2.4-.6 6.5-3.2 6.9-6.3.5 3.6-4.2 6.7-6.9 7.3-6.2 1.5-10.8 4.6-13.2 5.1-1.9.4-4.2.6-5.7-.8-.4-.4-.7-.9-.8-1.5 1.8 1.5 4.2 1.9 6.5 1.3z"/><path class="st13" d="M296.5 246.7c3.2.9 6.5.5 9.4-1.1 2.2.1 14.5-5.2 16.2-.8 1.5 3.9-3.8 7.4-6.7 8.1-6.2 1.5-10.8 4.6-13.3 5.1-1.9.4-4.2.6-5.7-.8-1.8-1.7-1.6-8.2.1-10.5z"/><path class="st12" d="M302.1 257c2.5-.5 7.1-3.6 13.3-5.1 2.4-.6 6.5-3.2 6.9-6.3.5 3.6-4.2 6.7-6.9 7.3-6.2 1.5-10.8 4.6-13.3 5.1-1.9.4-4.2.6-5.7-.8-.4-.4-.7-.9-.8-1.5 1.9 1.5 4.3 1.9 6.5 1.3z"/><path class="st2" d="M301.9 85c2.9.1 5.1.9 5.5 0 .3-1.5.5-3.1.6-4.6-.3-.8-.6-1.8-.6-1.8-3.7-2.3-4.8-6.2-5.3-10.9-.8-7.9 3.5-14.8 11.4-15.7 7.4-.8 12.9 4.5 14.4 11.6.8 3.5 2.4 10.2.2 16.1-1.2 3.2-2.7 5.8-4.2 6.3-1.5 0-2.9-.2-4.4-.4 0 0-.4 2.2-.7 3.6s-.2 2.2 2.6 3.9-4.2 5.3-8.9 4.9-9.8-3.1-11.2-6.1c-1.5-3.1-1.4-7.1.6-6.9z"/><path class="st3" d="M306.1 85.4c-.8 2 1.2 4.5 6.8 6.2s6-.5 6-.5 8.1 3.7 10.7 5.5c3.3 2.3 4.8 9 5.2 20.2.5 13 .6 32.4.1 35.7 0 0-6.2 6.1-14.1 5.5s-21.2-7.6-24.4-13c.1-11.4 1.4-13.3-.4-19.9-4.2-15.1-6.5-21.3-4.4-31.3 1.7-8.3 4.1-9.3 7.4-9.2 2.4.2 4.7.4 7.1.8z"/><path class="st2" d="M347.2 127.7c-6.5 1.6-8-2.4-8.9-5.8-2.1-8.2-3.2-15.6-4.7-20.2-1.8-5.5-3.7-6.3-6.4-7.4-3.1-1.3-5.8 1.4-4.8 8.4 1.2 8.3 2.9 14 5.9 23.8.8 2.5 2.6 7.1 5.3 9.3 3.3 2.7 8.4 2.6 16 .7 3.2-.8 6.8-2.8 13-5.6 1.6-.8 2.9-1.3 6.1-2.8 3.2-1.4 6-3.6 8.1-6.3 1.7-2.4 1.9-3.5 1.5-4.1s-1.2-.5-2.1.5c-1.3 1.7-2.9 3.2-4.7 4.3 0 0 2-2.1 3.1-3.5 1-1.2 1.8-2.6 2.5-4 .6-1.4-.6-3.3-1.5-2.3s-1.4 2-3 4c-.9 1.1-1.9 2-3 2.9 1-1.4 2-2.9 2.8-4.4.7-1.2 1.1-2.6 1-4 0-.7-1.1-1.6-2-.2-1 1.3-1.6 3.2-3.6 5.3-1.5 1.5-2.7 2.4-2.8 2s.9-1.3 1.4-3.1 0-3.7-1-3.9-.8-.2-1.6 1.5-2 2.9-3 5.3c-.5 1.7-1.4 3.3-2.7 4.6-1.2 1.5-4.8 3.4-10.9 5z"/><path class="st6" d="M324.9 93.1c4.3-.6 7.4 1.3 9.3 7.9s3.2 11.9 3.2 11.9c-1.7 2.5-4.3 4.2-7.2 4.8-5.2 1.2-7-1.2-7-1.2s-1.4-6.9-2.3-11.6-1.4-11.1 4-11.8z"/><path class="st12" d="M327.6 62.7s6.8-10.4-8-12.5C309 48.7 302 55.5 301.3 63c-.8 7.1 3.6 14.5 6.8 17.4 1.5.6 4.9.9 9.2-1.1.2-1.9.2-3.9.2-5.8 0 0-5.2-11 10.1-10.8z"/><path class="st2" d="M416 103s-1.1 17.3-3.4 19.7-9.9 4.2-9.9 4.2l-5.9 9.7s5.4-30.8 6.5-31.6 12.7-2 12.7-2z"/><path class="st7" d="M404.6 83.8c3-1.4 6.5-.3 8.2 2.5 2.2 3.6 4.4 15.9 4.6 18 0 0-3 4.2-7.6 3.5l-5.2-24z"/><path class="st4" d="M387.2 256c-3.2.9-6.6.5-9.5-1.1-2.3.1-14.8-5.3-16.5-.8-1.5 3.9 3.9 7.6 6.8 8.3 6.3 1.5 11 4.7 13.5 5.2 1.9.4 4.3.7 5.8-.8 1.8-1.8 1.6-8.4-.1-10.8z"/><path class="st5" d="M381.5 266.5c-2.5-.5-7.2-3.7-13.5-5.2-2.4-.6-6.6-3.2-7-6.4-.6 3.6 4.3 6.8 7 7.5 6.3 1.5 11 4.7 13.5 5.2 1.9.4 4.3.7 5.8-.8.4-.4.7-.9.8-1.5-1.9 1.4-4.3 1.9-6.6 1.2z"/><path class="st4" d="M406.6 250c-3.2.9-6.6.5-9.5-1.1-2.3.1-14.8-5.3-16.5-.8-1.5 3.9 3.9 7.6 6.8 8.3 6.3 1.5 11 4.7 13.5 5.2 1.9.4 4.3.7 5.8-.8 1.8-1.9 1.7-8.5-.1-10.8z"/><path class="st5" d="M400.9 260.4c-2.5-.5-7.2-3.7-13.5-5.2-2.4-.6-6.6-3.2-7-6.4-.6 3.6 4.3 6.8 7 7.5 6.3 1.5 11 4.7 13.5 5.2 1.9.4 4.3.7 5.8-.8.4-.4.7-.9.8-1.5-1.8 1.4-4.3 1.9-6.6 1.2z"/><path class="st8" d="M408 214.9c-.5-4.6-1.5-9.2-2.9-13.7 0 0 .9-11.8 1.3-23 .5-12.7 4.9-23.9 1.4-34l-38.7 8.6s1.9 50.7 2.4 56.8c.3 4.8.9 9.5 1.8 14.2 1.8 9.8 3.7 31.8 3.7 31.8 4.1 2.4 10.2.4 10.2.4s0-27.5-.2-34.6c-.3-8.6-.6-8-.6-8l1.3-21.5.8-10.7s1.1 7.9 1.8 14.9c.6 6.1 2.1 11.7 3.8 23.1 1.4 9.9 2.9 30 2.9 30 4.1 2.4 9.7.8 9.7.8s2.4-26.5 1.3-35.1z"/><path class="st2" d="M402.6 84c-3 .2-5.2.9-5.6 0-.3-1.5-.5-3.1-.7-4.7l.6-1.8c3.7-2.3 4.9-6.4 5.4-11.1.8-8.1-3.5-15.1-11.6-16-7.6-.8-13.1 4.5-14.6 11.8-.8 3.6-2.4 10.4-.2 16.4 1.2 3.3 2.8 6 4.3 6.5 1.5 0 3-.2 4.5-.4 0 0 .4 2.2.7 3.7s.2 2.2-2.7 4 4.3 5.4 9 5 10-3.2 11.4-6.2c1.7-3.3 1.5-7.3-.5-7.2z"/><path class="st7" d="M398.3 84.5c.8 2.1-1.3 4.6-6.9 6.3s-6.1-.5-6.1-.5-8.2 3.7-10.9 5.6c-3.4 2.3-4.9 9.2-5.3 20.6-.5 13.3-.6 33-.1 36.4 0 0 6.3 6.3 14.3 5.6s21.6-7.8 24.9-13.3c-.1-11.6-1.5-13.5.4-20.3 4.3-15.4 6.6-21.7 4.5-31.9-1.7-8.4-4.2-9.5-7.5-9.4-2.5.3-4.9.5-7.3.9z"/><path class="st2" d="M376 163.2l4.1-46.3-8.6-4.6-3.4 2.8 1 41.6v1.1l.1 1.5s-.2 3.5 6.4 7.7c0 0 .1-1.1.2-2.1l.2-1.7z"/><path class="st7" d="M377 93.1c-4.5-.1-7.3 2.3-8.4 9.1s-1.8 12.5-1.8 12.5c2.1 2.3 4.9 3.7 8 3.9 5.4.6 7-2.1 7-2.1s.6-7.1.9-12-.1-11.3-5.7-11.4z"/><path class="st1" d="M376.4 61.4s-7-10.6 8.1-12.7c10.9-1.6 17.9 5.4 18.7 13 .8 7.2-3.7 14.8-6.9 17.8-1.6.6-5 .9-9.4-1.1-.2-2-.2-4-.2-5.9 0-.2 5.3-11.3-10.3-11.1z"/><path class="st4" d="M195.2 216.5c-2.5 2.1-6.3.2-6.5.4-3 2.8-6.1 5.4-9.4 7.8-1.6 1.2-4 2.9-3.6 5.3.8 4.3 7.6 3 10.2 1.6s4.7-3.5 7.1-5c1.7-1.1 3.5-1.6 3.7-3.8.4-1.4-1-6.4-1.5-6.3z"/><path class="st5" d="M196.9 221.9c-.3 2.1-2 2.7-3.8 3.8-2.5 1.6-4.7 3.8-7.2 5.1-2.4 1.2-8.3 2.4-10-.6.9 4.1 7.6 2.8 10.2 1.5s4.7-3.5 7.1-5c1.7-1.1 3.5-1.6 3.7-3.8v-1z"/><path class="st4" d="M173.2 208.3c-2.5 2.1-7-.2-7.2 0-2.6 2.7-5.4 5.2-8.4 7.6-1.6 1.2-4.1 2.9-3.6 5.3.8 4.3 7.6 3 10.2 1.6s4.7-3.5 7.1-5c1.7-1.1 3.4-1.6 3.7-3.8.4-1.4-1.3-5.8-1.8-5.7z"/><path class="st5" d="M175.1 213.4c-.3 2.1-2 2.7-3.8 3.8-2.5 1.6-4.7 3.8-7.2 5.1-2.4 1.2-8.3 2.4-10-.6.9 4.1 7.6 2.8 10.2 1.5s4.7-3.5 7.1-5c1.7-1.1 3.5-1.6 3.7-3.8.1-.5.1-.7 0-1z"/><path class="st15" d="M195.4 122.9c-.1 3.8-1.3 20.5-1.9 29.3s-.6 19.6-.6 19.6 1.5 6.4 2.5 14 0 31.4 0 31.4c-2 1.3-4.5 1.3-6.5 0 0 0-4.1-19.1-5.9-27.7s-2.2-13.5-3.2-18.9c-1.2-6.4-3.7-36.5-3.7-36.5l-1 .1-2.7 33.9c.8 2.5 1.4 5.1 1.7 7.7.7 5.5-.8 33.3-.8 33.3-2.2 1.2-4.9 1.1-7-.3 0 0-6.8-36.8-6.8-42.4 0-3.7.6-52.6.6-52.6l35.3 9.1z"/><path class="st2" d="M166.1 125.4c-1.1-.9-1.8-2.1-3.5-3.3-1.5-1.1-2.5-1.6-3.4-3s-.8-6.9-1.2-11.8c-.4-5.8.7-13.5 1.8-16.6 2.2-6.2 1.5-16.7 3-20.2s5.8-2.8 4.4-4.5c-1.6-2.1-7.9-3.4-10.7 1.4s-2.7 15.3-4.7 22.7c-1 3.5-1.1 7.3-.6 14.7.3 5.2.4 10.3 1.9 15.4.4 1.4.4 2.9.8 5.6.5 2.7 1.1 5.9 2.6 7.7s2.3 2.1 2.8 2 .6-.8.1-1.7c-1-1.3-1.8-2.8-2.3-4.4 0 0 1.2 2 2 3.1.7 1 1.6 1.9 2.5 2.7.9.7 2.6.2 2.1-.7s-1.2-1.4-2.4-3.1c-.6-.9-1.2-1.8-1.6-2.9.9 1.1 1.8 2.1 2.8 3 .8.8 1.8 1.3 2.9 1.6.6.1 1.4-.5.6-1.5s-2.1-1.7-3.3-3.7c-.9-1.4-1.3-2.6-.9-2.5s.8.9 2 1.7 2.8.7 3.1 0 .3-.7-.8-1.7zM186.2 48.7s-.4 8.4-.2 9.1 3.8 3.2 4.9 4.1-5.8 7.6-9.1 9.2-13.9-2.5-14.1-7.7 1.8-9.5 3.4-9.8 15.1-4.9 15.1-4.9z"/><path class="st6" d="M187.1 59.3s-6.1 9-14.5 9.9c-2.7-2.6-2.9-12 .8-15 0 0-3.4-2.7-5.7-2.2-2.5 1.5-4.3 3.9-5.2 6.7-2.2 6.2-3.2 12.8-3 19.4.1 8.9 0 36 0 36s1.2 5.7 8.9 10 13.3 4.7 18.5 3.5c4.3-1 7.8-2.5 9.3-5.6-.4-6.2-3.2-22.4-2.1-30.3s2.7-13.7 3.1-20-.8-6.2-4-8.4c-2-1.6-4-2.9-6.1-4z"/><path class="st2" d="M182.1 129.6c1.4-.8 2.3-1.9 4.3-2.9 1.8-.8 3-1.2 4.2-2.6s2.8-6.9 4.1-12.1c1.3-5.9 1.5-11.9.8-17.8-1.2-7.1-4.4-16.9-5.4-21s.3-5.8 2.1-7.4c2.1-1.9 5.3-1.3 7.3 4.3 2.7 7.8 4.5 15.9 5.3 24.2.5 6.1-.1 12.3-1.6 18.2-1.4 5.5-3.4 9.6-5.9 14.6-.7 1.4-.9 2.6-1.9 5.4-1 2.8-2.6 5.3-4.8 7.4-1.9 1.6-2.9 1.9-3.4 1.6s-.5-1 .3-1.8c1.4-1.2 2.5-2.7 3.3-4.3 0 0-1.6 1.9-2.7 2.9-1 .9-2 1.7-3.2 2.4-1.1.6-2.9-.3-2.1-1.1s1.6-1.3 3.2-2.9c.8-.8 1.6-1.7 2.2-2.8-1.1 1-2.3 1.9-3.6 2.7-1 .7-2.1 1.1-3.3 1.1-.6 0-1.4-.8-.3-1.7s2.6-1.5 4.3-3.3c1.2-1.4 1.9-2.5 1.5-2.5s-1 .9-2.5 1.4-3.1.3-3.4-.6-.2-.6 1.2-1.4zM167.3 36.3c1-6.5 5.7-11.4 12.4-11 7.1.4 12.6 6.4 12.2 13.5-.2 4-2.3 7.7-5.6 10-.2 1-.6 1.9-1 2.8-2.4 2.8-9.5 4.5-11.6 4.2-2.6-.4-4.1-1.5-5.3-4.4-2.4-5.1-1.7-11.9-1.1-15.1z"/><path class="st12" d="M186.2 48.7l-.6-5.7s4.6-12-6.3-9.7c-7.2 1.5-9 2.2-11.2-2.7s5.5-9.2 14.7-8c6.6.7 11.5 6.3 11.4 12.9-.3 3.7-1.2 10.9-8 13.2z"/><path class="st11" d="M204.9 81.2s-6 5.9-13 4.2c-1-.7-3.4-14.6-3.4-14.6s0-7.7 5.9-7.5 10.5 17.9 10.5 17.9zM159.9 69.7s-3.1-.2-4.4-2c.2-3.1 4.2-14.9 12.2-15.8-2.2 1.5-3.9 3.6-5 6-1.5 3.7-2.8 11.8-2.8 11.8z"/><path class="st2" d="M179.2 97.2l.6-.4c1.9-1.3 14.8-9.2 16.1-11.4 3.6-6.5 6.6-13.4 9-20.5 1.4-4.3 3.8-5.9 6.4-5.5 2.9.4 4 2.5 2.4 7.2-2 5.9-3.8 12.1-8.6 19.1-1.4 2.1-3 4-4.7 5.8-1.5 1.6-3.1 3-4.7 4.4-2.5 1.9-11.2 5.8-14 7.1-2.9 1.5-6 2.3-9.2 2.5-.7.1-1.4-.1-2-.4-.6-.4-.9-1.1-1-1.8-.1-.7 0-1.4.1-2.1 3.4-.8 6.6-2.1 9.6-4z"/><path class="st1" d="M216.7 29.4c1.6-2.5 13.4-4.1 17.3 5.9 1.5 3.8 1.2 13.5 2.5 19.6s4.1 9.6 5.2 14.5-.7 13.2-12.6 14.7-19-3.2-21.8-7-5-11.4-2-15.7 5.1-7.9 5.1-13.5l6.3-18.5z"/><path class="st1" d="M224.5 27.6s-8.9-2.6-14.3 2.2c-3.6 3.3-5.1 8.4-3.8 13.2.7 2.8 2.2 6.6 4.4 6.9s13.7-22.3 13.7-22.3z"/><path class="st6" d="M210.8 75.8s-6.7-1.2-9.4-6.3l6.1-7.5s3-4.2 7.1-2 2.7 8.4-3.8 15.8z"/><path class="st2" d="M227.9 51.9s-.6 9.9-.4 10.7 3.9 1.4 4.9 2.3-5.4 10.9-8.7 12.4-13.4-2.3-14.1-7.4c-.6-4.6 2.9-8.2 4.3-9.5.9-.1 1.9-.1 2.8-.1l.3-4.8c4.4-1.4 10.9-3.6 10.9-3.6z"/><path class="st3" d="M234.9 83.5c-1.4 3.8-2.6 6.7-3.6 9.1-.7 1.7-1.3 3-1.9 4.1 0 0-12.1 5.2-21.8-.8 0 0-.2-2.2-.4-4.8-.1-2-.3-4.1-.3-5.7-9-7.8-1.3-17.5 6.3-25 .9-.1 1.8-.1 2.7 0 0 0-6.8 8-2.1 12.6 10.1-3.1 12.1-7.6 15.4-9.4 2.8.4 6 1.9 6.4 3.4.6 1.7 1.7 10.1-.7 16.5z"/><path class="st2" d="M209.3 39.6c1-6.4 5.6-11.2 12.2-10.8 7 .4 12.3 6.3 11.9 13.3-.2 4-2.3 7.6-5.6 9.8-.2 1-.6 1.9-1 2.8-2.3 2.7-8.5 4.4-10.6 4.5-1.8 0-3.3-1.6-4.9-4.4-3.4-5.7-2.5-12-2-15.2z"/><path class="st1" d="M223.6 28.9c4.6.9 8.4 2.2 9.6 6.7.9 3.1 2 9.1.9 11.6l-.7 1.8-5.6 2.9s-2.6-2.2-1.8-8.5c0-.8-.3-1.6-.8-2.3-.3-.6-.6-1.2-.8-1.9-.7-1.7-1.9-3.1-3.6-3.9-4.2-2.3-10.2-.3-11.1.5 2.5-5.4 8.3-8.2 13.9-6.9z"/><path class="st2" d="M236 109.9c1-6.5 3-10.7 2.1-14.2-2-7.2-4.6-14.2-7.9-20.9-2-4-1.4-6.8.7-8.4 2.4-1.8 4.6-1 6.8 3.4 2.7 5.6 5.7 11.3 7.2 19.7.7 4 1.1 8-.2 16.3-.9 5.8-2.8 9.1-4.9 14.5-.7 1.5-4.7-5-3.8-10.4z"/><path class="st8" d="M231.9 230.3c-2.3 1.9-6 .6-6.1.8-2.4 2.4-5.9 4.4-8.6 6.5-1.4 1.1-3.7 2.7-3.3 4.9.7 3.9 7 2.7 9.4 1.5s4.3-3.2 6.6-4.6c1.6-1 3.2-1.5 3.4-3.5.2-1.2-.9-5.6-1.4-5.6z"/><path class="st9" d="M233.3 235.1c-.3 1.9-1.9 2.5-3.4 3.5-2.3 1.4-4.3 3.5-6.7 4.7-2.2 1.1-7.7 2.2-9.2-.6.8 3.8 7 2.6 9.4 1.4s4.3-3.2 6.6-4.6c1.6-1 3.2-1.5 3.4-3.5 0-.4-.1-.6-.1-.9z"/><path class="st8" d="M215.6 227.1c-2.1 1.7-5.4.8-5.5.9-2.2 2.2-5.4 4.1-7.8 6-1.3 1.1-3.4 2.4-3 4.5.7 3.6 6.4 2.5 8.6 1.4s3.9-2.9 6-4.2c1.5-.9 2.9-1.4 3.1-3.2.1-1.3-1.1-5.5-1.4-5.4z"/><path class="st9" d="M216.9 231.6c-.3 1.8-1.7 2.3-3.2 3.2-2.1 1.3-3.9 3.2-6.1 4.3-2 1-7 2-8.4-.6.8 3.5 6.4 2.4 8.6 1.3s3.9-2.9 6-4.2c1.5-.9 2.9-1.4 3.1-3.2.1-.3.1-.5 0-.8z"/><path class="st2" d="M203 118.5c1-8 4-19.7 4-19.7 2.8 1.3 5.8 2.1 8.9 2.2 5.2.3 13.5-1.3 13.5-1.3 1.5 2.5 3 5 4.8 7.4 2.3 3.2 6.8 10.3 5.7 22.6-.7 8.1-5.2 42.3-5.2 42.3 1.8 5.8 2.7 11.7 2.8 17.8 0 5-1.4 13.4-2.8 21.2l-2.7 19.4s-3.6 2.6-6.1.8l.3-19c-.3-4.6-.8-11.5-1.1-15.9-.5-7.1-1.8-18.5-2.1-21.3s-1.3-7.8-1.7-13.3-2.5-33.7-2.5-33.7l-.3 5.3s-.3 8.6-1.5 19.1-1.7 15.2-1.7 15.2 2.1 3.9 2.4 6.8c.2 2.3 2.8 20.3 1.3 29.5l-3.2 23.4c-1.6 1.1-3.7 1.4-5.5.7l-1.9-23.6c-1.3-9-3.9-28-4.4-30.4-.5-3.2-1-4.9-1.6-15.1s-.4-32.3.6-40.4z"/><path class="st8" d="M229.4 96.7l6.9 13.9s10.6 15.5-.4 55.3l2 12.3s-20.7 13.3-34.6 0c0 0-4.8-36.8-2.2-53.7 1.4-9.7 3.6-19.4 6.5-28.8 0 0 3.4 3.8 20.9 1.3"/><path class="st6" d="M241.9 77.6s-4.8 4.8-10.5 4.2l-2.7-9.3s-1.8-4.9 2.4-7 8.4 2.5 10.8 12.1z"/><path class="st13" d="M167.4 96.7v.4s0 .1-.1.1v.1c-.1.1-.1.2-.1.2v.1l-.1.1-.1.1-.1.1-.2.2-.2.1-.3.1h-.2c-.1 0-.2 0-.2.1h-.3c-.2 0-.5 0-.7-.2-.1 0-.1-.1-.1-.2l10.4 17c.2.2.5.4.8.3h.7l.2-.1h.2l.1-.1h.1l.2-.1.1-.1.1-.1.1-.1v-.2c.1-.1.1-.2.1-.2v-.1s0-.1.1-.1V113.8v-.1-.1-.1-.1l-10.6-16.8c0-.2.1-.3.3-.4-.3.5-.3.5-.2.5z"/><path d="M166.5 96.2c.8 0 1.1.5.8 1.2-.4.7-1.2 1.2-2.1 1.3-.8 0-1.1-.5-.8-1.2.4-.7 1.2-1.2 2.1-1.3z" fill="#252935"/><path class="st11" d="M147.8 66.8v.5c0 .1-.1.1-.1.2l-.1.1-.1.1-.1.1s-.1.1-.2.1-.1.1-.2.1l-.2.1h-.4c-.2 0-.3 0-.5-.1l-.1-.1 19 30c.1.2.4.3.6.2h.6l.1-.1h.1l.1-.1s0-.1.1-.1l.1-.1v-.1l.1-.2v-.1-.1-.2-.2l-19-30h.2z"/><path class="st8" d="M147.1 66.4c.6 0 .8.4.5.8-.3.5-.9.9-1.5.9s-.8-.4-.5-.8c.4-.5.9-.8 1.5-.9z"/><path class="st11" d="M135.7 48.6v.4s0 .1-.1.1l-.1.1v.1l-.1.1-.1.1-.1.1H134.9c-.1 0-.2 0-.3-.1v-.1l11.4 18c.1.1.2.2.4.2h.4l.1-.1.1-.1.1-.1v-.1-.2l-11.4-18c-.1 0-.1-.2-.1-.2s0-.3.1-.2z"/><path class="st8" d="M135.3 48.4c.4 0 .5.2.4.5-.2.3-.6.6-1 .6s-.5-.2-.4-.5c.2-.4.6-.6 1-.6z"/><path class="st17" d="M138.8 51.1l2.8-1.6v.8l-2.8 1.6z"/><path class="st18" d="M131.2 46.8l2.9-1.7 7.5 4.4-2.8 1.6z"/><path class="st19" d="M138.8 51.1v.8l-7.6-4.3v-.8z"/><path class="st20" d="M146.3 44.8v8.3c0 .1 0 .2-.1.2 0 .1-.1.1-.1.2l-.1.1.8-.5c.1 0 .1-.1.1-.1l.1-.1v-.2-.1-.2-8.2l-.7.6z"/><path class="st21" d="M147.1 44.3v-.2-.1-.1-.1-.1-.1-.1-.4V42.8l-.1.2-.1-.1-.1-.1-.1-.1v-.1l-.1-.1-.1-.1h-.1l-.1-.1h-.4L129.7 33h-.1.4-.7l-.8.5c-.3-.1-.5-.3-.5-.5h.4c.1 0 .2.1.3.1l16.2 9.3.3.2c.1.1.2.1.2.2.1.1.2.2.2.3.1.1.1.2.2.3l.2.3c0 .1.1.2.1.3 0 .1.1.2.1.3v.3l.9-.3z"/><path class="st22" d="M145 42.5c.8.5 1.3 1.4 1.4 2.4v8c0 .9-.6 1.2-1.4.8l-16.2-9.4c-.8-.5-1.3-1.4-1.4-2.4v-8c0-.9.6-1.2 1.4-.8l16.2 9.4z"/><path class="st23" d="M144.1 43.3c.3.2.6.6.6 1s-.3.5-.6.3-.6-.6-.6-1 .3-.5.6-.3z"/><path class="st24" d="M144.8 42.7c.6.4 1.1 1.1 1.1 1.9v8c0 .7-.5 1-1.1.6l-15.7-9c-.6-.4-1.1-1.1-1.1-1.9v-8c0-.7.5-1 1.1-.6l15.7 9zm-4 0c.3.2.6 0 .6-.3 0-.4-.2-.8-.6-1-.3-.2-.6 0-.6.3.1.4.3.8.6 1m3.4 2c.3.2.6 0 .6-.3 0-.4-.2-.8-.6-1-.3-.2-.6 0-.6.3s.2.7.6 1m-1.7-1.1c.3.2.6 0 .6-.3 0-.4-.2-.8-.6-1-.3-.2-.6 0-.6.3 0 .4.2.8.6 1"/><path class="st23" d="M142.4 42.3c.3.2.6.6.6 1s-.3.5-.6.3-.6-.6-.6-1c.1-.3.3-.5.6-.3zM140.8 41.4c.3.2.6.6.6 1s-.3.5-.6.3-.6-.6-.6-1 .3-.5.6-.3z"/><path class="st18" d="M133.3 42.1h-.7l-1 .5c.1-.1.2-.1.4-.1s.3.1.4.2l5.3 3.1.9-.5-5.3-3.2z"/><path class="st17" d="M139.7 47V46.1 46l-.1-.1-.1-.1v-.1h-.5l-.9.5c.2.1.3.2.4.3.1.1.2.3.3.5.1.2.2.3.2.5.1.2.1.4.1.5v3.5l.9-.5v-4h-.3z"/><path class="st19" d="M137.7 45.7c.6.4 1.1 1.1 1.1 1.9v3.5l-7.6-4.3v-3.5c0-.7.5-1 1.1-.6l5.4 3z"/><path class="st2" d="M167.6 100.3c.4.1.8.3 1 .7.2.4 0 .8-.4 1h-.1c.7-.1 1.4.4 1.5 1.1.1.4-.1.8-.3 1.1.6-.2 1.3.1 1.5.7.2.6 0 1.2-.4 1.6.3 0 .6.1.9.2.3.1.5.5.5.8-.1.2-.2.4-.5.5-.2.1-.5.1-.7.1-.3 0-.6.1-.9.1-.6 0-1.3 0-1.9-.2-.8-.4-1.4-1.1-1.8-1.8-.6-.9-1-1.8-1.4-2.8-.3-.8-.8-2.2.2-2.8.3-.2.7-.3 1.1-.3.7-.1 1.2-.1 1.7 0z"/><path class="st2" d="M168.5 100.9c-.1.4 0 .7.2 1 .2.1.5.1.8 0 .2-.1.4-.3.6-.5.3-.3.6-.7.8-1.1.3-.7.3-2.2-.8-1.9s-1.5 1.7-1.6 2.5z"/><path class="st8" d="M252.3 446.3c2.7 2.2 6.8.2 7 .4 3.2 3 6.6 5.8 10.1 8.4 1.7 1.3 4.4 3.1 3.9 5.7-.9 4.6-8.2 3.2-11 1.8s-5.1-3.7-7.7-5.4c-1.9-1.2-3.7-1.8-4-4.1-.3-1.4 1.2-6.8 1.7-6.8z"/><path class="st9" d="M250.5 452.2c.4 2.3 2.2 2.9 4.1 4 2.7 1.7 5 4.1 7.8 5.5 2.6 1.3 9 2.6 10.8-.7-1 4.4-8.2 3-11 1.6s-5.1-3.7-7.7-5.4c-1.9-1.2-3.7-1.8-4-4.1v-.9z"/><path class="st8" d="M276 437.5c2.7 2.2 7.5-.2 7.7 0 2.8 2.9 5.8 5.6 9 8.1 1.7 1.3 4.4 3.1 3.9 5.7-.9 4.6-8.2 3.2-11 1.8s-5.1-3.8-7.7-5.4c-1.9-1.2-3.7-1.8-4-4.1-.2-1.4 1.6-6.1 2.1-6.1z"/><path class="st9" d="M274 443c.4 2.3 2.2 2.9 4 4 2.7 1.7 5 4.1 7.8 5.5 2.6 1.3 9 2.6 10.8-.7-1 4.4-8.2 3-11 1.6s-5.1-3.7-7.7-5.4c-1.9-1.2-3.7-1.8-4-4.1 0-.3.1-.6.1-.9z"/><path class="st2" d="M294.3 286.4s-.1 4.5.5 15.5c.2 8.3-.2 16.5-1.1 24.7-.8 6.5-2.6 12.8-5.2 18.8-2-9.5.3-11.1.3-11.1l-1.1-20.1s1.1-19.4.7-26.2c-.4-4.4 5.9-1.6 5.9-1.6z"/><path class="st10" d="M252.2 345.3c.1 4.1 1.4 22.1 2 31.6s.7 21.2.7 21.2-1.6 6.9-2.7 15.1 0 33.8 0 33.8c2.1 1.4 4.9 1.4 7 0 0 0 4.4-20.6 6.4-29.8s2.4-14.6 3.4-20.4c1.3-7 4-39.4 4-39.4l1.1.1 2.9 36.6c-.9 2.7-1.5 5.5-1.8 8.3-.8 6 .8 36 .8 36 2.4 1.3 5.3 1.2 7.6-.3 0 0 7.4-39.8 7.4-45.8 0-4-.7-56.7-.7-56.7l-38.1 9.7z"/><path class="st2" d="M282.1 281.2c-.2 1.6-1 3.1-2.2 4.2-1.6 1.5-3.5 2.6-5.6 3.4-2.9 1.1-5.8 1.5-7.3.8-3.6-1.6-11-8.9-9.8-9.9.5-.4 1.5-1.1 2.5-1.9.2-.2.4-.3.6-.5.7-.5 1.4-1.1 2-1.7.1-.1.2-.2.2-.3.2-.8-.3-9.8-.3-9.8s10.4 3.6 14.6 4.9l.5.1c.1 0 .2.1.4.1.3.1.5.1.8.2 1.6.1 3.8 4.8 3.6 10.4z"/><path class="st6" d="M291 296.9c-.2 9.6 0 38.8 0 38.8s-1.3 6.2-9.5 10.8-14.4 5-20 3.8c-4.6-1.1-8.4-2.7-10-6.1.4-6.7 3.4-24.2 2.3-32.6s-2.9-14.7-3.4-21.5.9-6.7 4.3-9.1c2.2-1.6 3.8-2.6 4.9-3.3.3-.2.5-.3.7-.4.6-.4.9-.5.9-.5s6.5 9.8 15.7 10.7c2.9-2.8 3.1-12.9-.8-16.2 0 0 .5-.4 1.3-.9l.2-.1c1.3-.8 3.2-1.7 4.7-1.4 3 1.6 5.2 4.3 6.4 7.4 1.5 5.1 2.4 11.1 2.3 20.6z"/><path class="st2" d="M257.4 349.2c-1.4-1.5-3.7-10-5-15.3-1.3-6-1.6-12.2-.8-18.3 1.2-7.3 4.5-17.3 5.5-21.5s-.3-5.9-2.1-7.6c-2.2-2-5.4-1.4-7.5 4.4-2.7 8-4.6 16.3-5.5 24.7-.5 6.3.1 12.6 1.6 18.7 1.4 5.6 3.4 9.8 6.1 15 .7 1.4 2.3 5.4 3.4 8.2s5.6-6.9 4.3-8.3z"/><path class="st8" d="M279.8 285.3c-.3 1.2-1 2.4-1.9 3.3l-.6.6-.8-.1c-.8-.1-1.6-.2-2.4-.4-7.6-2-13.2-9.1-14.6-11l-.1-.1c.3-.2.5-.3.7-.4.7-.5 1.4-1.1 2-1.7.9 1.2 6.7 8.8 13.9 10.1.9-2 1.3-4.3 1.2-6.5-.1-3-1-5.4-2.4-6.5l1.1-1.3.8-1 .2-.3.4.3.2.2c1.8 1.8 2.9 4.8 3 8.4.2 2.2 0 4.3-.7 6.4z"/><path class="st2" d="M282.5 251.9c-1.1-7-6.1-12.3-13.3-11.9-7.7.4-13.5 6.9-13.2 14.6.2 4.3 2.5 8.3 6.1 10.8.3 1.1.6 2.1 1.1 3.1 2.6 3 10.3 4.8 12.5 4.5 2.9-.4 4.4-1.6 5.8-4.7 2.4-5.6 1.6-12.9 1-16.4z"/><path class="st1" d="M262.1 265.4l.7-6.1s-5-12.9 6.8-10.4c7.8 1.6 9.7 2.4 12.1-2.9s-6-9.9-15.9-8.6c-7.1.7-12.4 6.8-12.3 13.9.3 3.8 1.3 11.6 8.6 14.1z"/><path class="st11" d="M259.7 289.3s-1.5 8.4-2.7 12.9c-.1 1-.5 2-1 2.8-7.6 1.8-14-4.5-14-4.5s.3-1.2.9-3c1.7-5.4 5.7-16.1 10.5-16.2 6.3-.3 6.3 8 6.3 8zM296.5 290.6c-1.4 2-5.6 1.4-5.6 1.4s0-.8-.1-2c-.3-3.5-1.1-10.9-3.4-14.7-1.5-2.4-3.3-4.6-5.4-6.5 7.4.8 12.5 13.7 14 19.5.3.8.5 1.5.5 2.3z"/><path class="st2" d="M336.4 316.6c3.2.9 5.1 4.5 8 12.2s3.8 18.7 3.4 21.7c-.9 7.2-3.9 12.9-11.2 18.8l-3.5-6.3s7.1-6.3 7.8-13.5c.4-4.1-4.4-17.8-4.4-18.1s-.1-14.8-.1-14.8z"/><path class="st4" d="M308 483.7c-2.2.7-4.6.4-6.6-.9-1.8 0-12.2-4.1-13.5-.6-1.1 3 3 5.8 5.2 6.4 4.9 1.2 8.5 3.6 10.4 4 1.5.3 3.3.5 4.5-.6 1.5-1.4 1.4-6.5 0-8.3z"/><path class="st5" d="M303.6 491.8c-2-.4-5.5-2.8-10.4-4-1.9-.5-5.1-2.5-5.4-4.9-.4 2.8 3.3 5.3 5.4 5.8 4.9 1.2 8.5 3.6 10.4 4 1.5.3 3.3.5 4.5-.6.3-.3.5-.7.6-1.2-1.4 1-3.3 1.4-5.1.9z"/><path class="st4" d="M334.5 470c-1.9.7-4.1.3-5.7-.9-1.7 0-12.4-3.9-13.6-.6-1.1 2.9 2.9 5.6 5 6.1 4.7 1.1 8.1 3.5 10 3.9 1.4.3 3.2.5 4.3-.6 1.4-1.3 1.3-6.2 0-7.9z"/><path class="st5" d="M330.2 477.7c-1.9-.4-5.3-2.7-10-3.9-1.8-.4-4.9-2.4-5.2-4.7-.4 2.7 3.2 5.1 5.2 5.5 4.7 1.1 8.1 3.5 10 3.9 1.4.3 3.2.5 4.3-.6.3-.3.5-.7.6-1.1-1.4 1.1-3.2 1.4-4.9.9z"/><path class="st2" d="M338 443.6c0-4-.7-8-2-11.7 0 0 1.4-16.1 2.4-26.6 1.5-15.5 3.9-17.1 3.2-26.5-.6-8.8-5.6-14.5-6.9-20.4l-25.4 2s-2.2 7.2-5.1 21.5-3 31.4-2.8 54c.1 5.8-1 10.9-.6 25.4.2 9.8.8 21.7.8 21.7 3.7 3.2 6.3.8 6.3.8s6.5-28.9 7.5-35.5c1-6.9-.9-11-.9-11s1.9-9.1 3.3-16.2c1.7-8.7 6-27.5 6-27.5s-.7 28.9.5 34.6 1.5 10.6 2.6 18.4c1.3 9.4 1.9 23 1.9 23 3.9 2.5 5.6.6 5.6.6s3.6-18.4 3.6-26.6z"/><path class="st8" d="M334.6 358.3c2.7 2.7 7 11 7 23.5 0 14.1-2.1 11.2-3 26.8l-1 15.5s-21.2 10.1-36.3.7c-1.4-2.9.5-35.6 3.1-47.2s4.5-17.3 4.5-17.3 19.6 5.4 25.7-2z"/><path class="st2" d="M334.9 316.5c-5.4-.3-5.9.6-6.4-1.3-.1-.7-.5-5.5-.5-5.5.5-.6.9-1.3 1.4-2 6.5-4 8.6-12.5 4.6-19-2.3-3.7-6.1-6.1-10.4-6.5-7.2-.8-12.4 4.3-13.9 11.2-.8 3.4-1.5 10.4.6 16 1.2 3.2 2.3 5.4 5.2 5.3 1-.1 1.9-.3 2.8-.5.2 1.3.2 2.7.2 4-.1 1.4.2 2.1-2.5 3.7s4.1 5.1 8.5 4.8 9.4-3 10.8-5.9c1.5-3.3 2.2-4.1-.4-4.3z"/><path class="st6" d="M338.9 340.5s6.1-1.4 8.9-4.1c0 0-3.6-11.5-6-14.3s-4.6 15.6-4.6 15.6l1.7 2.8z"/><path class="st3" d="M329.5 316.4c1 1.2 1.1 2.8-2.8 3.8-2.8.8-5.8.6-8.4-.6-3 1.3-6 2.8-8.7 4.6-3.3 10.8-.6 12.2-2 20 .5 3.9 1.2 14 1.3 16.3 7.4 5.1 22.3 3.4 25.6-2.1.1-1.8.2-3.6.5-5.4 3.5-13 6.3-16.5 5.3-26.3-.6-5.6-1-8.4-4-9.9-1.7-.7-5.7-.5-6.8-.4z"/><path class="st2" d="M309.4 340.2c-3.9 7.2-4.4 15.7-1.4 23.3l-2.5 9.8s-9.8-15-7-25 4.2-12.9 4.2-12.9l7.2-.9-.5 5.7z"/><path class="st6" d="M312.1 341.4c-4.3-.6-8.2-2.6-11.2-5.7l6.8-9.4s3.8-4.8 8.9-2.1c0 0 3.8.4 0 8.4s-4.5 8.8-4.5 8.8z"/><path class="st12" d="M308.5 289.3c.6-4.6 5.3-5.5 7.1-5.2 2.4-1.6 5.2-2.3 8.1-2 6.4.7 10.7 4.8 12.6 11.3.9 2.4 1.4 6 1.9 9.9 2 14.4 7.2 25.8 2.3 30s-18.2 7-23.8 4.2 4.6-27.4-6.5-41.1c-2.6-3.2-2.8-5.5-1.7-7.1z"/><path class="st2" d="M123.5 273.9s-14.1-4.3-18.7-4.3C98.1 259 85 246.9 85 246.9l-2.8 4s10.2 22.1 17.3 26.5 24 7.6 24 7.6v-11.1z"/><path class="st20" d="M97.1 248.7v8.4c0 .1 0 .2-.1.2 0 .1-.1.1-.1.2 0 0-.1.1-.2.1l.8-.5c.1 0 .1-.1.2-.1v-.1l.1-.1v-.1-.1-.1-.1V248.1l-.7.6z"/><path class="st21" d="M97.9 248.1v-.1-.1-.1-.1-.1-.1-.2-.2-.4-.1l-.1-.1-.1-.2-.1-.1-.1-.1v-.1l-.1-.1v-.1l-.1-.1v-.1l-.1-.1H96.9L81.1 236H79.9l-.1.1-.8.5c.1 0 .1-.1.2-.1h.2l.2.1c.1 0 .2.1.3.1l15.8 9.4c.1.1.2.1.3.2l.2.2c.1.1.2.2.2.3.1.1.1.2.2.3.1.1.1.2.2.3l.2-.2c0 .1.1.2.1.4v.3l.8.2z"/><path class="st22" d="M95.8 246.3c.8.5 1.3 1.4 1.3 2.4v8.1c0 .9-.6 1.2-1.3.8L80 248.1c-.8-.5-1.3-1.4-1.3-2.4v-8.1c0-.9.6-1.2 1.3-.8l15.8 9.5z"/><path class="st23" d="M95 247.1c.3.2.5.6.6 1 0 .4-.3.5-.6.3s-.6-.6-.6-1c0-.3.2-.5.6-.3z"/><path class="st24" d="M95.6 246.5c.6.4 1 1.1 1.1 1.9v8.1c0 .7-.5 1-1.1.6L80.3 248c-.6-.4-1-1.1-1.1-1.9V238c0-.7.5-1 1.1-.6l15.3 9.1zm-3.9 0c.3.2.6 0 .6-.3 0-.4-.2-.8-.6-1-.3-.2-.6 0-.6.3.1.4.3.8.6 1zm3.3 2c.3.2.6 0 .6-.3 0-.4-.2-.8-.6-1-.3-.2-.6 0-.6.3 0 .4.3.7.6 1zm-1.6-1c.3.2.6 0 .6-.3 0-.4-.2-.8-.6-1-.3-.2-.6 0-.6.3 0 .4.2.7.6 1z"/><path class="st23" d="M93.3 246.1c.3.2.5.6.6 1 0 .4-.3.5-.6.3s-.5-.6-.6-1c.1-.3.3-.5.6-.3zM91.7 245.1c.3.2.5.6.6 1 0 .4-.3.5-.6.3s-.5-.6-.6-1c0-.3.3-.4.6-.3z"/><path class="st2" d="M82.3 250.9s-5.8-4-6-6.4c-.1-1.7.1-3.4.7-5 .2-.7.4-1.6 1.2-1.9.5-.2 1.1 0 1.5.3.8.5 1.6 1.1 2.3 1.7 1 .7 2 1.4 3.1 2.1.4.3 2.8 1.6 2.2 2.3-1.2 1.2-3.2-.4-4.2-.9-1.3-.6-2.6-1.4-3.8-2.3 0 .1.1.4.1.5.1.2.2.4.4.6.3.3.7.6 1.2.9.6.4 1.3.8 2 1.1.8.4 1.7.8 2.4 1.4.3.2.3.6.1.9l-.1.1c-.3.3-.9.2-1.3.1s-.9-.3-1.4-.4c-.7-.2-1.3-.5-1.9-.9-.5-.3-1-.7-1.5-1.1 0 .2.1.4.1.5.2.3.4.5.6.7.4.4.9.6 1.3 1 .8.7 2 .8 2.8 1.5.2.2.3.5.1.7 0 0 0 .1-.1.1-.2.2-.7.2-.9.2-.8-.1-1.5-.3-2.2-.6-.4-.2-.9-.4-1.3-.6-.3-.1-.6-.3-.8-.5.3.6 4.8 3.6 4.8 3.6l-1.4.3z"/><path class="st6" d="M114.3 284.1s-2.2-8.4 2.9-13.8c1.1-.5 14.8 4.4 14.8 4.4s6.9 4 3.7 9.1-21.4.3-21.4.3z"/><path class="st4" d="M159.5 442.5c-2.6 2.1-6.5.2-6.7.4-3.1 2.9-6.3 5.5-9.7 8-1.6 1.3-4.2 3-3.7 5.5.8 4.4 7.9 3 10.6 1.7s4.8-3.6 7.4-5.1c1.8-1.1 3.6-1.7 3.9-4 .1-1.4-1.3-6.6-1.8-6.5z"/><path class="st5" d="M161.2 448c-.4 2.2-2.1 2.8-3.9 3.9-2.6 1.6-4.8 3.9-7.5 5.2-2.5 1.2-8.6 2.5-10.4-.7.9 4.3 7.9 2.9 10.5 1.6s4.8-3.6 7.4-5.1c1.8-1.1 3.6-1.7 3.9-4v-.9z"/><path class="st4" d="M136.8 434c-2.6 2.1-7.2-.2-7.4 0-2.7 2.8-5.6 5.4-8.6 7.8-1.6 1.3-4.2 3-3.7 5.5.8 4.4 7.9 3.1 10.6 1.7 2.7-1.4 4.8-3.6 7.4-5.2 1.8-1.1 3.6-1.7 3.9-4 0-1.3-1.8-5.8-2.2-5.8z"/><path class="st5" d="M138.7 439.2c-.4 2.2-2.1 2.8-3.9 3.9-2.6 1.6-4.8 3.9-7.5 5.2-2.5 1.2-8.6 2.5-10.3-.7.9 4.3 7.9 2.9 10.5 1.6 2.6-1.3 4.9-3.6 7.4-5.2 1.8-1.1 3.6-1.7 3.9-4 0-.2-.1-.5-.1-.8z"/><path class="st14" d="M159.6 345.7c-.1 4-1.4 21.2-1.9 30.3s-.7 20.3-.7 20.3 1.6 6.6 2.6 14.4 0 32.4 0 32.4c-2 1.3-4.7 1.3-6.7 0 0 0-4.2-19.7-6.1-28.6s-2.3-14-3.3-19.5c-1.2-6.7-3.9-37.7-3.9-37.7l-1 .1-2.8 35.1c.9 2.6 1.5 5.3 1.8 8 .8 5.7-.8 34.5-.8 34.5-2.3 1.3-5.1 1.1-7.3-.3 0 0-7-38.1-7-43.9 0-3.8.7-54.4.7-54.4l36.4 9.3z"/><path class="st2" d="M150.1 269.1s-.4 8.6-.2 9.4 4 3.3 5.1 4.2-6 7.9-9.4 9.5-14.3-2.6-14.5-7.9 1.9-9.9 3.5-10.1 15.5-5.1 15.5-5.1z"/><path class="st3" d="M151.1 280s-6.3 9.4-15 10.2c-2.8-2.7-3-12.4.8-15.5 0 0-3.5-2.8-5.9-2.3-2.6 1.6-4.5 4-5.4 6.9-2.2 6.4-3.3 13.2-3.1 20 .2 9.2 0 37.2 0 37.2s1.2 5.9 9.1 10.3 13.8 4.8 19.2 3.6c4.4-1 8.1-2.6 9.6-5.8-.4-6.4-3.3-23.2-2.2-31.3s2.8-14.1 3.2-20.6-.9-6.4-4.1-8.7c-1.9-1.5-4-2.8-6.2-4z"/><path class="st2" d="M145.9 352.7c1.4-.8 2.4-2 4.5-3 1.8-.9 3.1-1.2 4.4-2.6s2.8-7.1 4.2-12.5c1.3-6.1 1.6-12.3.8-18.4-1.2-7.3-4.6-17.5-5.5-21.7s.3-6 2.2-7.7c2.2-2 5.5-1.4 7.6 4.4 2.8 8.1 4.6 16.5 5.5 25 .5 6.3-.1 12.7-1.6 18.8-1.4 5.7-3.5 9.9-6.1 15.1-.7 1.4-.9 2.7-2 5.5-1 2.9-2.7 5.5-5 7.6-2 1.6-3 1.9-3.5 1.6s-.6-1 .3-1.8c1.4-1.3 2.6-2.7 3.4-4.4 0 0-1.7 2-2.8 3-1 1-2.1 1.8-3.3 2.5-1.2.6-2.9-.3-2.1-1.2s1.7-1.3 3.3-3c.9-.9 1.6-1.8 2.3-2.8-1.2 1-2.4 1.9-3.7 2.8-1 .7-2.2 1.1-3.5 1.2-.6 0-1.5-.8-.3-1.8s2.7-1.5 4.4-3.5c1.2-1.4 1.9-2.6 1.5-2.6s-1 .9-2.6 1.5-3.2.3-3.5-.6-.3-.6 1.1-1.4zM130.6 256.2c1-6.7 5.9-11.8 12.8-11.4 7.4.4 13 6.7 12.6 14-.2 4.1-2.4 7.9-5.8 10.2-.2 1-.6 2-1.1 2.9-2.4 2.9-9.9 4.6-12 4.3-2.7-.4-4.2-1.5-5.5-4.5-2.3-5.1-1.6-12.2-1-15.5z"/><path class="st12" d="M150.1 269.1l-.6-5.9s4.8-12.4-6.5-10c-7.5 1.6-9.3 2.2-11.6-2.8s5.7-9.5 15.2-8.3c6.8.7 11.9 6.5 11.8 13.3-.3 3.9-1.2 11.3-8.3 13.7z"/><path class="st6" d="M169.5 302.7s-6.2 6.1-13.5 4.4c-1-.7-3.6-15-3.6-15s0-7.9 6.1-7.7 11 18.3 11 18.3z"/><path class="st1" d="M168.8 267.1c1.4-2.3 12.3-3.8 15.9 5.4 1.4 3.5 1.1 12.4 2.3 18s3.8 8.8 4.8 13.3-.6 12.2-11.6 13.5-19.4-2.5-22-6-2.6-10.9 0-14.9 4.7-7.2 4.7-12.4l5.9-16.9z"/><path class="st2" d="M155.8 305.7s-2.6 18.2 2.3 31.1 3.5-3.3 3.5-3.3l-1.2-3.9s-1-14.9-.6-18.5.3-6.8.6-7.1-1-.9-1.5-1-3.1 2.7-3.1 2.7z"/><path class="st1" d="M176 265.5s-8.2-2.4-13.1 2.1c-3.3 3.1-4.7 7.7-3.5 12.1.7 2.6 2 6.1 4 6.3s12.6-20.5 12.6-20.5z"/><path class="st2" d="M179.1 287.9s-.5 9.1-.4 9.8 3.6 1.3 4.5 2.1-5 10-8 11.4-12.3-2.1-13-6.8c-.6-4.3 2.7-7.6 3.9-8.8.9-.1 1.7-.1 2.6-.1l.3-4.4c4.2-1.2 10.1-3.2 10.1-3.2z"/><path class="st3" d="M185.5 316.9c-1.2 3.3-2.2 5.9-3.1 8-.7 1.7-1.3 3-1.9 4.1-1.5.6-3.1 1.1-4.7 1.4-3.8.7-9.2 1.1-14.2-1.5-.4-.2-.8-.4-1.2-.7v-.2c-.1-.5-.2-2.3-.4-4.4-.1-1.8-.2-3.7-.3-5.1-8.2-7.2-1.2-16.1 5.8-23 .8-.1 1.7-.1 2.5 0 0 0-6.2 7.4-1.9 11.6 9.3-2.8 11.1-7 14.1-8.6 2.6.4 5.5 1.8 5.9 3.2.6 1.6 1.7 9.4-.6 15.2z"/><path class="st2" d="M162.1 276.6c.9-5.9 5.1-10.3 11.2-9.9 6.4.4 11.3 5.8 11 12.2-.2 3.6-2.1 7-5.1 9-.2.9-.5 1.7-.9 2.6-2.1 2.5-7.8 4.1-9.7 4.1-1.6 0-3-1.5-4.5-4-3.3-5.3-2.5-11.1-2-14z"/><path class="st1" d="M175.2 266.8c4.2.8 7.7 2 8.9 6.2.8 2.9 1.8 8.3.8 10.6l-.6 1.7-5.1 2.6s-2.4-2-1.6-7.9c0-.8-.3-1.6-.7-2.2-.3-.6-.6-1.1-.7-1.8-.6-1.6-1.8-2.9-3.3-3.6-3.8-2.1-9.4-.3-10.2.5 2-4.8 7.3-7.3 12.5-6.1z"/><path class="st2" d="M186.6 341.1c1-5.9 2.7-9.8 1.9-13-1.8-6.6-4.3-13.1-7.2-19.2-1.9-3.7-1.3-6.3.6-7.7 2.2-1.6 4.3-.9 6.2 3.2 2.5 5.1 5.3 10.4 6.6 18.1.7 3.7 1 7.3-.2 15-.8 5.3-2.5 8.3-4.5 13.4-.5 1.2-4.2-4.7-3.4-9.8z"/><path class="st13" d="M182.9 451.9c-2.1 1.7-5.5.5-5.6.7-2.2 2.2-5.4 4.1-7.9 6-1.3 1.1-3.4 2.5-3 4.5.7 3.6 6.5 2.5 8.6 1.4s4-2.9 6-4.2c1.5-.9 2.9-1.4 3.1-3.2.2-1.2-.9-5.3-1.2-5.2z"/><path class="st12" d="M184.1 456.2c-.3 1.8-1.7 2.3-3.2 3.2-2.1 1.3-3.9 3.2-6.1 4.3-2 1-7.1 2-8.5-.5.8 3.5 6.4 2.4 8.6 1.3s4-2.9 6-4.2c1.5-.9 2.9-1.4 3.1-3.2.1-.4.1-.6.1-.9z"/><path class="st13" d="M167.8 448.9c-2 1.6-4.9.7-5.1.9-2 2-5 3.7-7.2 5.5-1.2 1-3.1 2.2-2.8 4.1.6 3.3 5.9 2.3 7.9 1.3s3.6-2.7 5.5-3.9c1.3-.8 2.7-1.3 2.9-3 .2-1.1-.8-5-1.2-4.9z"/><path class="st12" d="M169.1 453c-.3 1.6-1.6 2.1-2.9 2.9-1.9 1.2-3.6 2.9-5.6 3.9-1.8.9-6.4 1.9-7.8-.5.7 3.2 5.9 2.2 7.9 1.2s3.6-2.7 5.5-3.9c1.3-.8 2.7-1.3 2.9-3v-.6z"/><path class="st2" d="M156.2 349.1c.9-7.4 3.7-18.1 3.7-18.1 2.6 1.2 5.4 1.9 8.2 2 4.8.2 12.4-1.2 12.4-1.2 1.3 2.3 2.8 4.6 4.4 6.8 2.1 3 6.3 9.5 5.3 20.8-.7 7.4-4.8 38.9-4.8 38.9 1.6 5.3 2.5 10.8 2.6 16.3 0 4.6-1.2 12.4-2.6 19.5l-2.5 17.9s-3.3 2.4-5.6.7l.3-17.5c-.3-4.3-.7-10.6-1-14.6-.4-6.6-1.6-17-2-19.6s-1.2-7.1-1.6-12.2-2.3-31-2.3-31l-.3 4.9s-.2 7.9-1.4 17.6-1.5 14-1.5 14c1.1 2 1.8 4.1 2.2 6.3.2 2.1 2.6 18.7 1.2 27.1l-2.9 21.5c-1.5 1-3.4 1.3-5.1.7l-1.7-21.6c-1.2-8.2-3.6-25.7-4-28-.8-4.6-1.3-9.2-1.5-13.9-.6-9.5-.4-29.9.5-37.3z"/><path class="st14" d="M40.7 229.9c-.3 2.6-.5 4.1-.5 4.1-4.2 4-9.9 6.1-15.7 5.6-9.3-.4-17.4-5.6-17.4-5.6l.6-3.6 1.4-8.1c-10.5-38-.4-52.8-.4-52.8l5.5-11.1 1.1-2.2.9.2c16.3 2.3 19.8-1 19.9-1.2 0 0 .3.8.7 2.3 2.4 8.3 4.2 16.7 5.5 25.2 2 12.8-.5 37.5-1.6 47.2z"/><path class="st10" d="M296.3 213.4c.5-4.5 1.5-9 2.8-13.4 0 0-.8-11.6-1.3-22.6-.5-12.5-4.8-23.4-1.4-33.4l38.5 8.6s-2.3 49.7-2.8 55.7c-.3 4.7-.9 9.3-1.7 13.9-1.8 9.6-4.6 32.6-4.6 32.6-4.1 2.4-9.4 1-9.4 1s.3-29 .6-36c.3-8.5.6-7.8.6-7.8l-1.3-21-.8-10.5s-1.1 7.7-1.8 14.6c-.6 6-2.1 11.4-3.7 22.6-1.4 9.7-3.7 29.2-3.7 29.2-4.1 2.4-9.6.4-9.6.4s-1.5-25.5-.4-33.9z"/><path class="st15" d="M186.6 392.6l1.9 11.3s-19.1 12.2-31.8 0c0 0-4.4-33.8-2.1-49.4 1.3-8.8 3.2-17.5 5.8-26 .1-.2.1-.4.1-.5l20 1 .4.8 6 12c0 .1 9.7 14.3-.3 50.8z"/><path class="st6" d="M192 311.5s-4.4 4.4-9.7 3.9l-2.5-8.6s-1.6-4.5 2.2-6.5 7.8 2.4 10 11.2zM165.7 295.6s-5.1-1.5-10.4 9.7l2 1.2c-.1 0 5.2-8 8.4-10.9z"/><path class="st8" d="M180.6 329.1l.4.8c-1.7.3-3.4.5-5.1.6h-2c-4.1 0-8.2-.5-12.2-1.5l-1.3-.4c.1-.2.1-.4.1-.5-.1-.5-.2-2.3-.4-4.4 2.9.9 12.4 3.6 22.3 1.2-.7 1.7-1.3 3-1.8 4.2z"/><path d="M231.3 92.6c-.7 1.7-1.3 3-1.9 4.1 0 0-12.1 5.2-21.8-.8 0 0-.2-2.2-.4-4.8 3.7 1.2 13.7 4.1 24.1 1.5z" fill="#e9eaf4"/><path class="st11" d="M350.9 51.2c-.1 1.7-.2 2.9-.2 2.9s-4.2.5-5.6-1.4c.1-1 .3-2 .6-3 1.5 1.1 3.4 1.7 5.2 1.5z"/><path class="st26" d="M301.5 482.9l-.3-6.2c2.5 1.1 5.4 1.3 8 .4l-1.5 6.6c-.8.6-1.7.9-2.7.8-1.2-.1-2.5-.7-3.5-1.6zM328.6 469.5l-.3-6.2c2.1 1.4 4.7 1.6 7.1.7l-1.1 6s-.2.8-2.1.8c-1.3-.1-2.6-.5-3.6-1.3z"/><path class="st11" d="M86.7 150.1c-1.3 2.6-4.9 5.1-9.6 6.5-1.6.5-3.3.8-5 .8-2.5-.2-4.9-1-7-2.3 2.4-1.2 4.6-2.2 4.9-2.3.8.5 2.5 1.2 5.8.2 3.7-1.1 6.7-2.7 6.7-5.8v-.1c.2 0 2.2-.3 4.4-.5.4 1.1.4 2.4-.2 3.5z"/><path class="st7" d="M68.3 166.2c-.4 2.4-1 5.3-1.5 7.6-.4 2.1-.8 3.6-.8 3.6s-1.8 2.4-6.9 1.2c-2.9-.6-5.4-2.3-7.1-4.7 0 0 .3-1.3.9-3.4s1.4-5 2.3-8.2c1.9-6.4 4.8-8.3 9.1-7.7 5.2.8 4.9 7 4 11.6z"/><path class="st11" d="M66.8 173.8c-.4 2.1-.8 3.6-.8 3.6s-1.8 2.4-6.9 1.2c-2.9-.6-5.4-2.3-7.1-4.7 0 0 .3-1.3.9-3.4 1.9 2 4.4 3.3 7.1 3.9 2.3.6 4.6.3 6.8-.6z"/><path class="st26" d="M13 283.8c1.1.8 2.4 1.3 3.8 1.4.7.1 1.5-.2 2.1-.6l-.1-6.2c-1 .4-2.1.6-3.2.5-1.1.1-2.3-.1-3.3-.5l.7 5.4zM28.5 280.9c1 .6 2.1 1 3.3 1 .7.1 1.4-.1 2-.3l.5-6.1c-1 .4-2.2.6-3.3.5-1.1.1-2.3-.1-3.3-.5l.8 5.4z"/><path class="st8" d="M257 302.2c-.1 1-.5 2-1 2.8-7.6 1.8-14-4.5-14-4.5s.3-1.2.9-3c4.8 4.1 9.5 5.6 14.1 4.7zM296.5 290.6c-1.4 2-5.6 1.4-5.6 1.4s0-.8-.1-2c3.2.1 4.5-.8 5.2-1.7.3.8.4 1.5.5 2.3z"/><path class="st15" d="M36.9 157.5c-3.7 1.6-7.7 2.4-11.8 2.3-3.7 0-7.3-.5-10.9-1.4l1.1-2.2c-.4-.8-.8-1.6-1.2-2.6 5.5 1.8 16.4 2.9 22.2-1-.1 1.2-.2 2.2-.2 2.6.1 0 .4.8.8 2.3z"/></g></g></svg>